<svg width="31" height="16" xmlns="http://www.w3.org/2000/svg" xmlns:xlink="http://www.w3.org/1999/xlink"><defs><linearGradient x1="10.406%" y1="50%" x2="100%" y2="50%" id="a"><stop stop-color="#B77B54" offset="0%"/><stop stop-color="#FCD390" offset="100%"/></linearGradient><path d="M23.955 13.818H7.75c-3.114 0-5.636-2.603-5.636-5.818 0-3.215 2.522-5.818 5.636-5.818h17.614c1.944 0 3.522 1.629 3.522 3.636s-1.578 3.637-3.522 3.637H10.568C9.793 9.455 9.16 8.8 9.16 8s.634-1.455 1.41-1.455h13.386V4.364H10.568C8.624 4.364 7.045 5.993 7.045 8s1.579 3.636 3.523 3.636h14.796c3.114 0 5.636-2.603 5.636-5.818C31 2.604 28.478 0 25.364 0H7.75C3.466 0 0 3.578 0 8c0 4.422 3.466 8 7.75 8h16.205v-2.182z" id="b"/></defs><use fill="url(#a)" xlink:href="#b"/></svg>