<svg width="40" height="40" xmlns="http://www.w3.org/2000/svg"><g fill="none" fill-rule="evenodd"><path d="M0 0h40v40H0z"/><path d="M16.6 10h6.8c.4 0 1 .4 1.3.7l1.9 2.8a1 1 0 0 0 .8.4h4c.9 0 1.6.7 1.6 1.7v13.3c0 1-.8 1.7-1.7 1.7H8.7A1.7 1.7 0 0 1 7 28.9V15.6c0-1 .8-1.7 1.7-1.7h4c.3 0 .6-.2.7-.4l1.9-2.8a2 2 0 0 1 1.3-.6zm9.7 6c0 .5.4.8.8.8.5 0 .9-.3.9-.8a.8.8 0 0 0-.9-.8.8.8 0 0 0-.8.8zm-12.5 5.8c0 3.5 2.8 6.3 6.2 6.3 3.4 0 6.2-2.8 6.2-6.3 0-3.4-2.8-6.2-6.2-6.2a6.2 6.2 0 0 0-6.2 6.2zM9.5 11h1.7c.5 0 .8.4.8.9v.8H8.7v-.8c0-.5.4-.9.8-.9zM15 22a5 5 0 0 1 5.1-5.2 5 5 0 0 1 5 5.1 5 5 0 0 1-5 5.1 5 5 0 0 1-5-5z" fill="#757575"/></g></svg>