<svg width="42" height="14" xmlns="http://www.w3.org/2000/svg"><path d="M32.544 1.473c3.714 1.004 6.16 2.38 7.48 3.655 1.319 1.274 1.384 1.964 1.372 2.588-.012.624-.53 2.99-.603 3.408-.074.417-.674 1.702-2.128 1.467-1.455-.236-4.302-.784-6.22-1.12-2.835-.354-2.608-2.033-2.735-2.768-.232-1.352-.104-1.878-1.081-2.822-.978-.943-6.392-.893-7.707-.901-1.305-.008-6.32.41-7.261 1.13-.949.725-1.148 2.73-1.153 3.193-.243 2.141-1.63 2.144-2.488 2.41-.858.266-4.924 1.285-6.227 1.56a2.34 2.34 0 0 1-2.044-.622S.792 8.75.679 8.28c-.117-.563.13-1.406 1.347-2.665 1.216-1.26 2.746-2.384 7.594-3.884C13.586.505 18.25.187 20.83.155c2.626-.079 7.472.172 11.714 1.318Z" fill="#FFF" fill-rule="evenodd"/></svg>