<svg width="150" height="40" xmlns="http://www.w3.org/2000/svg">
    <g fill="#FFF" fill-rule="nonzero">
        <path d="M54.022 14.53h7.337v1.96h-5.093v2.77H60.6v1.865h-4.334v4.476H54.02V14.529zM65.25 14.53h2.246v4.553h4.049V14.53h2.246V25.6h-2.246v-4.554h-4.05v4.554H65.25zM84.069 14.53h2.246v4.553h4.05V14.53h2.246V25.6h-2.246v-4.554h-4.05v4.554H84.07zM97.289 14.53h7.211v1.96h-4.965v2.626h4.239v1.866h-4.239v2.657h4.998v1.962H97.29V14.529zM107.475 24.855l3.827-10.326h2.199l3.842 10.326v.744h-2.213l-.887-2.595h-3.78l-.918 2.595h-2.072v-.744h.002zm6.087-3.717-1.203-3.605-1.233 3.605h2.436zM120.917 14.53h2.246v9.11h5.06v1.96h-7.306zM132.414 16.489H129.3v-1.96h8.46v1.962h-3.1v9.11h-2.246zM141.332 14.53h2.247v4.553h4.049V14.53h2.246V25.6h-2.246v-4.554h-4.05v4.554h-2.246z"/>
        <g>
            <path d="M18.662 2.642c4.056 0 7.356 3.3 7.356 7.357 0 4.056-3.3 7.356-7.356 7.356-4.057 0-7.357-3.3-7.357-7.356 0-4.055 3.3-7.357 7.357-7.357m0-2.642c-5.524 0-10 4.477-10 10 0 5.524 4.476 10.001 10 10.001 5.523 0 10-4.477 10-10 0-5.524-4.477-10.001-10-10.001z"/>
            <path d="M10.01 7.641c1.282 0 2.551.343 3.67.987 3.513 2.028 4.72 6.536 2.691 10.05a7.385 7.385 0 0 1-6.38 3.68c-1.28 0-2.55-.342-3.668-.986-3.514-2.029-4.72-6.537-2.692-10.05a7.381 7.381 0 0 1 6.38-3.68m0-2.645A9.996 9.996 0 0 0 1.34 10c-2.76 4.783-1.122 10.899 3.661 13.66a9.996 9.996 0 0 0 13.66-3.66C21.422 15.216 19.784 9.1 15 6.339a9.937 9.937 0 0 0-4.99-1.342z"/>
            <path d="M9.994 14.998v2.644c2.624 0 5.07 1.41 6.38 3.68 2.028 3.514.82 8.022-2.693 10.05a7.346 7.346 0 0 1-3.668.987 7.385 7.385 0 0 1-6.38-3.68c-2.028-3.514-.82-8.022 2.692-10.05a7.346 7.346 0 0 1 3.669-.987v-2.644m-.002 0a9.942 9.942 0 0 0-4.99 1.342C.219 19.1-1.42 25.216 1.341 30A9.996 9.996 0 0 0 15 33.659c4.783-2.76 6.421-8.877 3.66-13.66a9.996 9.996 0 0 0-8.67-5.001z"/>
            <path d="M18.662 22.643c4.056 0 7.356 3.3 7.356 7.357 0 4.056-3.3 7.356-7.356 7.356-4.057 0-7.357-3.3-7.357-7.356 0-4.057 3.3-7.357 7.357-7.357m0-2.644c-5.524 0-10 4.477-10 10 0 5.524 4.476 10.001 10 10.001 5.523 0 10-4.477 10-10 0-5.524-4.477-10.001-10-10.001z"/>
            <path d="M27.331 17.64c1.281 0 2.55.342 3.67.986 3.513 2.029 4.72 6.537 2.69 10.05a7.385 7.385 0 0 1-6.379 3.68c-1.28 0-2.55-.341-3.668-.986-3.514-2.028-4.72-6.536-2.692-10.05a7.385 7.385 0 0 1 6.38-3.68m0-2.642a9.996 9.996 0 0 0-8.67 5.001c-2.761 4.783-1.123 10.9 3.66 13.66a9.996 9.996 0 0 0 13.66-3.66c2.76-4.783 1.122-10.898-3.66-13.66a9.942 9.942 0 0 0-4.99-1.341z"/>
            <path d="M27.312 4.997v2.644c2.625 0 5.07 1.411 6.38 3.68 2.028 3.514.82 8.022-2.692 10.05a7.346 7.346 0 0 1-3.669.987 7.385 7.385 0 0 1-6.38-3.68c-2.028-3.514-.82-8.022 2.693-10.05a7.346 7.346 0 0 1 3.668-.987V4.997m0 0a9.942 9.942 0 0 0-4.99 1.342C17.54 9.1 15.902 15.216 18.663 20a9.996 9.996 0 0 0 13.66 3.66c4.782-2.761 6.42-8.877 3.66-13.66a9.996 9.996 0 0 0-8.67-5.002z"/>
        </g>
    </g>
</svg>
