<svg width="136" height="16" xmlns="http://www.w3.org/2000/svg">
    <defs>
        <linearGradient x1="-4.468%" y1="50%" x2="142.509%" y2="50%" id="a">
            <stop stop-color="#FCD390" offset="0%"/>
            <stop stop-color="#B77B54" offset="100%"/>
        </linearGradient>
    </defs>
    <path d="M10.723 0v2.835h-7.44v4h6.331v2.697H3.282V16H0V0h10.723zm58.982 0v2.835H62.45v3.793h6.192v2.697h-6.192v3.84h7.301V16h-10.58V0h10.533zm27.267 0v13.165h7.394V16H93.69V0h3.282zM118.3 0v2.835h-4.528V16h-3.282V2.832h-4.55V0h12.36zM19.48 0v6.581h5.917V0h3.282v15.997h-3.282V9.416H19.48v6.581h-3.282V0h3.282zm23.655 0v6.581h5.916V0h3.282v15.997h-3.282V9.416h-5.916v6.581h-3.282V0h3.282zm39.72 0 5.615 14.922v1.075h-3.235l-1.296-3.749h-5.522l-1.34 3.75h-3.029v-1.076h.003L79.643 0h3.212zm43.947 0v6.581h5.916V0H136v15.997h-3.282V9.416h-5.916v6.581h-3.282V0h3.282zM81.188 4.34l-1.802 5.211h3.559l-1.757-5.21z" fill="url(#a)" fill-rule="nonzero"/>
</svg>
