<svg width="37" height="38" xmlns="http://www.w3.org/2000/svg"><path d="M23.975 17.182V5.994A5.986 5.986 0 0 0 17.98 0c-3.077 0-5.574 2.318-5.914 5.294l11.908 11.888Zm7.991.8H28.57c0 1.158-.2 2.257-.54 3.276l2.538 2.537c.879-1.758 1.398-3.736 1.398-5.814ZM2.817 1.717 0 4.535l11.987 11.988v1.458a5.986 5.986 0 0 0 5.994 5.994c.46 0 .88-.06 1.299-.16l3.316 3.316a10.985 10.985 0 0 1-4.615 1.04c-5.514 0-10.589-4.196-10.589-10.19H3.996c0 6.813 5.434 12.447 11.987 13.426v6.553h3.996v-6.553c1.818-.26 3.536-.9 5.095-1.798L33.464 38l2.818-2.817L2.817 1.718Z" fill="#232325" fill-rule="nonzero"/></svg>