<svg width="86" height="96" xmlns="http://www.w3.org/2000/svg" xmlns:xlink="http://www.w3.org/1999/xlink">
    <defs>
        <linearGradient x1="0%" y1="50%" x2="77.465%" y2="108.348%" id="b">
            <stop stop-color="#FCD390" offset="0%"/>
            <stop stop-color="#B77B54" offset="100%"/>
        </linearGradient>
        <linearGradient x1="70.72%" y1="40.186%" x2="80.641%" y2="60.012%" id="h">
            <stop stop-opacity="0" offset="0%"/>
            <stop stop-opacity=".25" offset="100%"/>
        </linearGradient>
        <linearGradient x1="50%" y1="0%" x2="50%" y2="100%" id="i">
            <stop stop-color="#F7F7FA" offset="0%"/>
            <stop stop-color="#ECECF3" offset="100%"/>
        </linearGradient>
        <path id="d" d="M0 0h5.706v37.409H0z"/>
        <path d="M12.804-.567H20.3c.766 0 1.394.607 1.422 1.372l1.118 31.393a1.422 1.422 0 0 1-1.371 1.473H11.686a1.422 1.422 0 0 1-1.423-1.423v-.05L11.382.805a1.423 1.423 0 0 1 1.422-1.372z" id="f"/>
        <circle id="a" cx="38.36" cy="38.36" r="38.36"/>
    </defs>
    <g fill="none" fill-rule="evenodd">
        <circle cx="38.36" cy="38.36" r="38.36" opacity=".4" fill="#27303B" fill-rule="nonzero" transform="translate(9.1 19.28)"/>
        <g transform="translate(9.1 19.28)">
            <mask id="c" fill="#fff">
                <use xlink:href="#a"/>
            </mask>
            <use fill="url(#b)" xlink:href="#a"/>
            <g mask="url(#c)">
                <path d="m35.618 38.96 4.942-2.854 18.704 32.397-4.942 2.853z" fill="#D8D8EB" fill-rule="nonzero"/>
                <g transform="rotate(15 -107.881 205.557)">
                    <mask id="e" fill="#fff">
                        <use xlink:href="#d"/>
                    </mask>
                    <path d="M1.492 3.602h1.037c1.178 0 2.134.956 2.134 2.135v29.97a2.134 2.134 0 0 1-2.134 2.134H1.492V3.602z" fill="#F0F0F6" fill-rule="nonzero" mask="url(#e)" transform="rotate(-45 3.077 20.722)"/>
                </g>
                <g>
                    <path d="m38.012 44.898 6.492-3.748a1.423 1.423 0 0 1 1.918.477l16.665 26.628a1.422 1.422 0 0 1-.451 1.961l-.044.026-8.428 4.866c-.681.393-1.55.16-1.944-.52l-.025-.044-14.728-27.747a1.423 1.423 0 0 1 .545-1.9z" fill="#536273" fill-rule="nonzero"/>
                    <g transform="rotate(15 -123.657 163.542)">
                        <mask id="g" fill="#fff">
                            <use xlink:href="#f"/>
                        </mask>
                        <path d="M13.132-6.833h2.304c1.179 0 2.134 1.646 2.134 3.677v48.26c0 2.03-.955 3.677-2.134 3.677h-.057l-3.635-.168 1.388-55.446z" fill="#27303B" fill-rule="nonzero" mask="url(#g)" transform="rotate(-45 14.657 20.974)"/>
                    </g>
                </g>
            </g>
            <path fill="url(#h)" mask="url(#c)" d="M.18 45.162h76.469V82.9H.18z"/>
        </g>
        <g transform="rotate(-30 48.944 13.115)" fill-rule="nonzero">
            <ellipse fill-opacity=".5" fill="#F4F4F4" cx="25.914" cy="26.539" rx="25.524" ry="25.545"/>
            <path d="M16.382 9.452c9.043-5.225 20.182-2.858 24.881 5.287.16.276.308.554.449.834-4.953-7.492-15.648-9.53-24.385-4.482C8.59 16.14 5.007 26.429 9.014 34.466c-.173-.261-.339-.53-.498-.805-4.698-8.145-1.177-18.984 7.866-24.209z" fill="#DBDBEB"/>
            <path d="M36.076 43.942c-9.042 5.225-20.182 2.858-24.881-5.287a15.47 15.47 0 0 1-.448-.833c4.951 7.491 15.647 9.53 24.384 4.482 8.738-5.049 12.32-15.339 8.314-23.375.173.26.338.53.497.804 4.699 8.146 1.178 18.984-7.865 24.21z" fill="#FFF"/>
            <path d="M25.914.994c14.097 0 25.524 11.437 25.524 25.545 0 14.108-11.427 25.545-25.524 25.545C11.818 52.084.39 40.647.39 26.539.389 12.431 11.817.994 25.914.994zm0 6.308c-10.616 0-19.222 8.613-19.222 19.237 0 10.625 8.606 19.237 19.222 19.237 10.615 0 19.222-8.613 19.222-19.237 0-10.625-8.606-19.237-19.222-19.237z" fill="url(#i)"/>
            <path d="M11.721 29.462c-.42-.52-.63-2.686-.63-6.495 0-5.715 4.967-11.058 10.65-11.607 3.79-.366 5.645-.335 5.567.092a1.2 1.2 0 0 1 .486 2.337l-2.36.77A17.197 17.197 0 0 0 14.56 25.142l-1.615 4.532a.629.629 0 0 1-1.224-.212z" fill-opacity=".8" fill="#FFF"/>
        </g>
    </g>
</svg>
