<svg width="288" height="288" xmlns="http://www.w3.org/2000/svg"><svg xmlns="http://www.w3.org/2000/svg" width="288" height="288" version="1.0" viewBox="0 0 512 512"><path d="M225 171.6c-2.5.2-10.8.8-18.5 1.4-47 3.7-91.8 14.5-125.5 30.3-37.7 17.7-65.3 44.2-73.7 70.8-2.5 7.8-3.1 8.9-5.1 8.9H-.2l.4 23.2c.3 22 .4 23.5 2.5 26.8 1.2 2 4.1 4.6 6.4 5.9l4.2 2.4 63.4-.6 63.3-.5 4.4-2.6c7.2-4.2 7.6-5.9 7.6-32.5V282h-2.5c-3 0-3.3-2.5-1-7 4.3-8.3 16.6-13 44.9-17.2 14.2-2.1 18.6-2.2 72.6-2.2 51.7-.1 58.3.1 65.8 1.7 12.4 2.7 19.1 5.5 24 10.1 4.8 4.6 8.1 11.9 5.6 12.4-1.2.3-1.4 4.3-1.4 23.5 0 22.2.1 23.4 2.3 27.1 1.4 2.5 3.9 4.8 6.7 6.3l4.5 2.4 62.5-.6c61.3-.7 62.6-.7 67-2.8 3.4-1.7 5.1-3.3 6.8-6.7 2.2-4.3 2.2-5.3 2-27-.3-22.3-.3-22.5-2.5-22.8-1.5-.2-2.4-1.3-2.8-3.5-2.3-10.8-13.2-28.3-25-40.2-33.8-34.1-88.6-54.7-165-62.1-14.9-1.4-80.3-2.7-91.5-1.8z" fill="#fff" class="color000 svgShape"/></svg></svg>